<?xml version="1.0" encoding="UTF-8" standalone="no"?>
<!DOCTYPE svg PUBLIC "-//W3C//DTD SVG 1.1//EN" "http://www.w3.org/Graphics/SVG/1.1/DTD/svg11.dtd">
<svg width="100%" height="100%" viewBox="0 0 321 641" version="1.1" xmlns="http://www.w3.org/2000/svg" xmlns:xlink="http://www.w3.org/1999/xlink" xml:space="preserve" xmlns:serif="http://www.serif.com/" style="fill-rule:evenodd;clip-rule:evenodd;stroke-linejoin:round;stroke-miterlimit:2;">
    <g transform="matrix(1,0,0,1,0,-14)">
        <path d="M0,14L77.165,14L77.165,28.061L157.189,28.061L157.189,66.589L77.165,66.589L77.165,186.169L79.737,186.169C80.309,186.169 80.783,185.747 81.167,184.904C81.546,184.06 81.738,183.172 81.738,182.232L81.738,71.088L157.189,71.088L157.189,184.482C157.189,195.92 153.282,205.53 145.471,213.307C137.657,221.089 127.654,224.978 115.463,224.978L0,224.978L0,14Z" style="fill:rgb(244,161,39);fill-rule:nonzero;"/>
        <path d="M172.763,25.309C180.289,17.813 190.72,14.061 204.059,14.061L320.094,14.061L320.094,183.638C320.094,196.201 316.328,206.232 308.804,213.729C301.275,221.229 290.75,224.978 277.223,224.978L161.474,224.978L161.474,55.4C161.474,42.842 165.234,32.81 172.763,25.309L172.763,25.309ZM242.499,184.763C242.971,183.827 243.212,182.702 243.212,181.388L243.212,52.588L241.212,52.588C240.448,52.588 239.829,53.107 239.355,54.135C238.876,55.167 238.639,56.34 238.639,57.65L238.639,186.169L240.64,186.169C241.4,186.169 242.021,185.703 242.499,184.763Z" style="fill:rgb(244,161,39);fill-rule:nonzero;"/>
        <path d="M0,228.602L64.69,228.602L64.69,439.519L45.798,439.519L45.798,245.757L41.218,245.757L41.218,439.519L23.471,439.519L23.471,245.757L18.892,245.757L18.892,439.519L0,439.519L0,228.602Z" style="fill:rgb(229,119,30);fill-rule:nonzero;"/>
        <path d="M74.275,233.945C77.804,230.386 82.621,228.602 88.731,228.602L111.057,228.602L111.057,420.115C111.057,425.928 109.339,430.617 105.905,434.176C102.47,437.74 97.604,439.519 91.307,439.519L68.98,439.519L68.98,248.007C68.98,242.197 70.742,237.509 74.276,233.945L74.275,233.945ZM92.022,421.662C92.308,421.196 92.451,420.677 92.451,420.115L92.451,245.757L89.016,245.757C88.632,245.757 88.346,245.994 88.158,246.46C87.966,246.93 87.871,247.444 87.871,248.007L87.871,422.365L91.02,422.365C91.4,422.365 91.736,422.132 92.022,421.662L92.022,421.662Z" style="fill:rgb(229,119,30);fill-rule:nonzero;"/>
        <path d="M115.349,228.602L157.426,228.602L157.426,392.556C157.426,395.368 156.898,397.946 155.852,400.289C154.801,402.635 153.32,404.745 151.415,406.616L157.712,406.616L157.712,439.519L139.107,439.519L139.107,417.302L134.241,417.302L134.241,439.519L115.349,439.519L115.349,228.602ZM138.535,399.585C138.722,399.212 138.821,398.742 138.821,398.18L138.821,245.757L134.241,245.757L134.241,400.148L137.675,400.148C138.056,400.148 138.342,399.963 138.535,399.585Z" style="fill:rgb(229,119,30);fill-rule:nonzero;"/>
        <path d="M162.288,228.602L204.365,228.602L204.365,392.556C204.365,395.368 203.837,397.946 202.791,400.289C201.74,402.635 200.259,404.745 198.354,406.616L204.652,406.616L204.652,439.519L186.045,439.519L186.045,417.302L181.18,417.302L181.18,439.519L162.288,439.519L162.288,228.602ZM185.474,399.585C185.661,399.212 185.76,398.742 185.76,398.18L185.76,245.757L181.18,245.757L181.18,400.148L184.615,400.148C184.995,400.148 185.281,399.963 185.474,399.585L185.474,399.585Z" style="fill:rgb(229,119,30);fill-rule:nonzero;"/>
        <path d="M214.237,233.945C217.766,230.386 222.582,228.602 228.692,228.602L251.018,228.602L251.018,420.115C251.018,425.928 249.301,430.617 245.866,434.176C242.431,437.74 237.565,439.519 231.268,439.519L208.941,439.519L208.941,248.007C208.941,242.197 210.703,237.509 214.237,233.945L214.237,233.945ZM231.983,421.662C232.27,421.196 232.413,420.677 232.413,420.115L232.413,245.757L228.978,245.757C228.593,245.757 228.307,245.994 228.12,246.46C227.927,246.93 227.833,247.444 227.833,248.007L227.833,422.365L230.982,422.365C231.362,422.365 231.698,422.132 231.983,421.662L231.983,421.662Z" style="fill:rgb(229,119,30);fill-rule:nonzero;"/>
        <path d="M255.311,228.602L274.203,228.602L274.203,422.365L278.783,422.365L278.783,228.602L296.529,228.602L296.529,422.365L301.109,422.365L301.109,228.602L320,228.602L320,439.519L255.311,439.519L255.311,228.602Z" style="fill:rgb(229,119,30);fill-rule:nonzero;"/>
        <path d="M0,443.143L67.118,443.143L67.118,557.32C67.118,561.82 66.257,566.038 64.536,569.975C62.815,573.913 60.422,577.384 57.365,580.381L67.118,580.381L67.118,621.72C67.118,631.471 64.15,639.297 58.226,645.202C52.296,651.108 44.073,654.061 33.558,654.061L0,654.061L0,443.143ZM35.853,566.319L35.853,471.547L31.264,471.547L31.264,569.412L33.846,569.412C35.181,569.412 35.853,568.385 35.853,566.319L35.853,566.319ZM35.28,624.533C35.661,623.785 35.853,622.845 35.853,621.72L35.853,598.098L31.264,598.098L31.264,625.657L33.846,625.657C34.419,625.657 34.894,625.284 35.28,624.533Z" style="fill:rgb(163,167,72);fill-rule:nonzero;"/>
        <path d="M71.418,443.143L138.536,443.143L138.536,579.537C138.536,584.036 137.675,588.255 135.954,592.192C134.233,596.129 131.84,599.6 128.783,602.597L138.822,602.597L138.822,654.061L107.558,654.061L107.558,620.314L102.682,620.314L102.682,654.061L71.418,654.061L71.418,443.143L71.418,443.143ZM106.841,590.645C107.128,589.99 107.271,589.287 107.271,588.536L107.271,471.547L102.682,471.547L102.682,591.63L105.55,591.63C106.124,591.63 106.554,591.304 106.841,590.645Z" style="fill:rgb(163,167,72);fill-rule:nonzero;"/>
        <path d="M143.409,460L143.409,443.143L176.968,443.143L176.968,460L143.409,460ZM176.968,464L176.968,654.061L143.409,654.061L143.409,464L176.968,464Z" style="fill:rgb(163,167,72);"/>
        <path d="M181.556,443.143L248.673,443.143L248.673,654.061L217.41,654.061L217.41,471.547L212.82,471.547L212.82,654.061L181.556,654.061L181.556,443.143Z" style="fill:rgb(163,167,72);fill-rule:nonzero;"/>
        <path d="M261.867,452.002C267.792,446.096 275.921,443.143 286.248,443.143L320.094,443.143L320.094,472.391L287.969,472.391C286.629,472.391 285.674,472.812 285.1,473.656C284.527,474.5 284.24,475.392 284.24,476.328L284.24,625.657L288.829,625.657L288.829,476.89L320.094,476.89L320.094,654.061L252.976,654.061L252.976,475.485C252.976,465.738 255.938,457.907 261.867,452.002L261.867,452.002Z" style="fill:rgb(163,167,72);fill-rule:nonzero;"/>
    </g>
</svg>
