<?xml version="1.0" encoding="UTF-8"?>
<svg id="b" data-name="Layer 2" xmlns="http://www.w3.org/2000/svg" width="320.0938" height="654.0608" viewBox="0 0 320.0938 654.0608">
  <defs>
    <style>
      .d {
        fill: #e5771e;
      }

      .e {
        fill: #f4a127;
      }

      .f {
        fill: #a3a748;
      }
    </style>
  </defs>
  <g id="c" data-name="Layer 1">
    <g>
      <path class="e" d="M0,0h77.1655v14.0608h80.0236v38.5279h-80.0236v133.5805h2.572c.5716,0,1.0453-.422,1.4293-1.2654.3796-.8439.5716-1.7314.5716-2.672V57.0878h75.4506v127.394c0,11.4377-3.9073,21.0478-11.7178,28.8255-7.8145,7.7821-17.8175,11.6706-30.0085,11.6706H0V0Z"/>
      <path class="e" d="M172.7632,25.3095c7.5255-7.4964,17.9566-11.2487,31.2953-11.2487h116.0353v169.5775c0,12.5625-3.7657,22.5941-11.2893,30.0904-7.5294,7.5007-18.0546,11.2492-31.5813,11.2492h-115.7492V55.4004c0-12.5585,3.7598-22.5901,11.2893-30.0909ZM242.4992,184.7631c.4722-.9363.7132-2.061.7132-3.3748V52.5882h-2.0004c-.7641,0-1.3832.5187-1.8574,1.5467-.4781,1.0325-.7151,2.2056-.7151,3.5155v128.5188h2.0004c.7602,0,1.3813-.4659,1.8593-1.4061Z"/>
      <path class="d" d="M0,228.6023h64.6897v210.9171h-18.8918v-193.7628h-4.5799v193.7628h-17.7468v-193.7628h-4.5795v193.7628H0v-210.9171Z"/>
      <path class="d" d="M74.2754,233.9453c3.5287-3.5594,8.3455-5.343,14.4551-5.343h22.3262v191.5122c0,5.8138-1.7175,10.5024-5.1519,14.0618-3.435,3.5633-8.3009,5.343-14.5983,5.343h-22.3267v-191.5127c0-5.8094,1.7621-10.4975,5.2957-14.0613ZM92.0222,421.6618c.286-.4659.4292-.9846.4292-1.5472v-174.3579h-3.435c-.3846,0-.6706.2374-.8585.7033-.1923.4698-.2865.9841-.2865,1.5467v174.3584h3.149c.3797,0,.7152-.2335,1.0017-.7033Z"/>
      <path class="d" d="M115.3492,228.6023h42.077v163.9532c0,2.8122-.5279,5.3909-1.5742,7.7332-1.0513,2.3462-2.5318,4.4561-4.4367,6.3276h6.2969v32.9031h-18.6053v-22.217h-4.8659v22.217h-18.8918v-210.9171ZM138.5345,399.5854c.1879-.3731.286-.843.286-1.4056v-152.4232h-4.5795v154.3914h3.4345c.3802,0,.6667-.1846.859-.5626Z"/>
      <path class="d" d="M162.2883,228.6023h42.077v163.9532c0,2.8122-.5279,5.3909-1.5747,7.7332-1.0508,2.3462-2.5313,4.4561-4.4367,6.3276h6.2979v32.9031h-18.6063v-22.217h-4.8655v22.217h-18.8918v-210.9171ZM185.4735,399.5854c.1874-.3731.2865-.843.2865-1.4056v-152.4232h-4.5799v154.3914h3.435c.3797,0,.6662-.1846.8585-.5626Z"/>
      <path class="d" d="M214.2365,233.9453c3.5291-3.5594,8.3455-5.343,14.4551-5.343h22.3267v191.5122c0,5.8138-1.717,10.5024-5.1519,14.0618-3.435,3.5633-8.3014,5.343-14.5983,5.343h-22.3267v-191.5127c0-5.8094,1.7621-10.4975,5.2952-14.0613ZM231.9833,421.6618c.2865-.4659.4297-.9846.4297-1.5472v-174.3579h-3.435c-.3846,0-.6711.2374-.8585.7033-.1923.4698-.2865.9841-.2865,1.5467v174.3584h3.1485c.3807,0,.7162-.2335,1.0017-.7033Z"/>
      <path class="d" d="M255.3108,228.6023h18.8918v193.7628h4.5799v-193.7628h17.7468v193.7628h4.5799v-193.7628h18.8908v210.9171h-64.6892v-210.9171Z"/>
      <path class="f" d="M0,443.1433h67.1177v114.1766c0,4.5001-.8608,8.7178-2.5818,12.6552-1.7205,3.9374-4.114,7.4089-7.1707,10.4057h9.7524v41.3396c0,9.7503-2.9672,17.5763-8.8917,23.482-5.9294,5.9057-14.153,8.8585-24.6674,8.8585H0v-210.9176ZM35.8533,566.319v-94.7718h-4.5894v97.8652h2.5818c1.3356,0,2.0076-1.0276,2.0076-3.0935ZM35.2796,624.5326c.381-.7472.5737-1.6879.5737-2.8122v-23.6226h-4.5894v27.5591h2.5818c.5737,0,1.0485-.3731,1.4339-1.1243Z"/>
      <path class="f" d="M71.418,443.1433h67.1177v136.3936c0,4.4991-.8608,8.7178-2.5818,12.6552-1.7205,3.9365-4.114,7.408-7.1707,10.4047h10.039v51.464h-31.2639v-33.747h-4.8765v33.747h-31.2639v-210.9176ZM106.8411,590.6449c.2866-.6544.4301-1.3577.4301-2.1089v-116.9888h-4.5894v120.0823h2.8684c.5737,0,1.0038-.3253,1.2909-.9846Z"/>
      <path class="f" d="M143.4092,443.1433h33.5586v210.9176h-33.5586v-210.9176Z"/>
      <path class="f" d="M181.5561,443.1433h67.1172v210.9176h-31.2634v-182.5136h-4.5894v182.5136h-31.2644v-210.9176Z"/>
      <path class="f" d="M261.8673,452.0017c5.9245-5.9057,14.0542-8.8585,24.3803-8.8585h33.8462v29.2479h-32.1247c-1.34,0-2.2947.421-2.8689,1.2649-.5732.8439-.8603,1.7358-.8603,2.6715v149.3292h4.5894v-148.7666h31.2644v177.1706h-67.1182v-178.5762c0-9.7464,2.9623-17.5773,8.8917-23.4829Z"/>
    </g>
  </g>
</svg>